<mxfile host="app.diagrams.net" agent="Mozilla/5.0 (Windows NT 10.0; Win64; x64; rv:128.0) Gecko/20100101 Firefox/128.0" version="27.1.6">
  <diagram name="Page-1" id="mPRYtnHCe1ainTHo_fgo">
    <mxGraphModel dx="1636" dy="427" grid="1" gridSize="10" guides="1" tooltips="1" connect="1" arrows="0" fold="1" page="1" pageScale="1" pageWidth="850" pageHeight="1100" math="0" shadow="0">
      <root>
        <mxCell id="0" />
        <mxCell id="1" parent="0" />
        <mxCell id="MufeMbEMQpiEw7InIswr-2" value="`" style="points=[[0,0],[0.25,0],[0.5,0],[0.75,0],[1,0],[1,0.25],[1,0.5],[1,0.75],[1,1],[0.75,1],[0.5,1],[0.25,1],[0,1],[0,0.75],[0,0.5],[0,0.25]];outlineConnect=0;gradientColor=none;html=1;whiteSpace=wrap;fontSize=12;fontStyle=0;container=1;pointerEvents=0;collapsible=0;recursiveResize=0;shape=mxgraph.aws4.group;grIcon=mxgraph.aws4.group_aws_cloud_alt;strokeColor=#232F3E;fillColor=none;verticalAlign=top;align=left;spacingLeft=30;fontColor=#232F3E;dashed=0;" parent="1" vertex="1">
          <mxGeometry x="-590" y="420" width="1440" height="800" as="geometry" />
        </mxCell>
        <mxCell id="MufeMbEMQpiEw7InIswr-4" value="" style="sketch=0;points=[[0,0,0],[0.25,0,0],[0.5,0,0],[0.75,0,0],[1,0,0],[0,1,0],[0.25,1,0],[0.5,1,0],[0.75,1,0],[1,1,0],[0,0.25,0],[0,0.5,0],[0,0.75,0],[1,0.25,0],[1,0.5,0],[1,0.75,0]];outlineConnect=0;fontColor=#232F3E;fillColor=#01A88D;strokeColor=#ffffff;dashed=0;verticalLabelPosition=bottom;verticalAlign=top;align=center;html=1;fontSize=12;fontStyle=0;aspect=fixed;shape=mxgraph.aws4.resourceIcon;resIcon=mxgraph.aws4.bedrock;" parent="MufeMbEMQpiEw7InIswr-2" vertex="1">
          <mxGeometry x="737" y="374" width="78" height="78" as="geometry" />
        </mxCell>
        <mxCell id="MufeMbEMQpiEw7InIswr-5" value="" style="rounded=1;whiteSpace=wrap;html=1;dashed=1;" parent="MufeMbEMQpiEw7InIswr-2" vertex="1">
          <mxGeometry x="857" y="40" width="543" height="160" as="geometry" />
        </mxCell>
        <mxCell id="MufeMbEMQpiEw7InIswr-6" value="" style="rounded=1;whiteSpace=wrap;html=1;dashed=1;" parent="MufeMbEMQpiEw7InIswr-2" vertex="1">
          <mxGeometry x="858" y="239" width="543" height="360" as="geometry" />
        </mxCell>
        <mxCell id="MufeMbEMQpiEw7InIswr-9" value="" style="sketch=0;outlineConnect=0;fontColor=#232F3E;gradientColor=none;fillColor=#232F3D;strokeColor=none;dashed=0;verticalLabelPosition=bottom;verticalAlign=top;align=center;html=1;fontSize=12;fontStyle=0;aspect=fixed;pointerEvents=1;shape=mxgraph.aws4.forums;" parent="MufeMbEMQpiEw7InIswr-2" vertex="1">
          <mxGeometry x="917" y="92" width="51.32" height="50" as="geometry" />
        </mxCell>
        <mxCell id="MufeMbEMQpiEw7InIswr-10" value="" style="sketch=0;points=[[0,0,0],[0.25,0,0],[0.5,0,0],[0.75,0,0],[1,0,0],[0,1,0],[0.25,1,0],[0.5,1,0],[0.75,1,0],[1,1,0],[0,0.25,0],[0,0.5,0],[0,0.75,0],[1,0.25,0],[1,0.5,0],[1,0.75,0]];outlineConnect=0;fontColor=#232F3E;fillColor=#ED7100;strokeColor=#ffffff;dashed=0;verticalLabelPosition=bottom;verticalAlign=top;align=center;html=1;fontSize=12;fontStyle=0;aspect=fixed;shape=mxgraph.aws4.resourceIcon;resIcon=mxgraph.aws4.lambda;" parent="MufeMbEMQpiEw7InIswr-2" vertex="1">
          <mxGeometry x="1077" y="96" width="50" height="50" as="geometry" />
        </mxCell>
        <mxCell id="MufeMbEMQpiEw7InIswr-12" value="" style="sketch=0;outlineConnect=0;fontColor=#232F3E;gradientColor=none;fillColor=#232F3D;strokeColor=none;dashed=0;verticalLabelPosition=bottom;verticalAlign=top;align=center;html=1;fontSize=12;fontStyle=0;aspect=fixed;pointerEvents=1;shape=mxgraph.aws4.forums;" parent="MufeMbEMQpiEw7InIswr-2" vertex="1">
          <mxGeometry x="917" y="254" width="51.32" height="50" as="geometry" />
        </mxCell>
        <mxCell id="MufeMbEMQpiEw7InIswr-14" value="/tavily API or any websearch APIs to fetch DQ rules" style="rounded=0;whiteSpace=wrap;html=1;" parent="MufeMbEMQpiEw7InIswr-2" vertex="1">
          <mxGeometry x="1215" y="261.5" width="163" height="48" as="geometry" />
        </mxCell>
        <mxCell id="MufeMbEMQpiEw7InIswr-13" value="" style="sketch=0;points=[[0,0,0],[0.25,0,0],[0.5,0,0],[0.75,0,0],[1,0,0],[0,1,0],[0.25,1,0],[0.5,1,0],[0.75,1,0],[1,1,0],[0,0.25,0],[0,0.5,0],[0,0.75,0],[1,0.25,0],[1,0.5,0],[1,0.75,0]];outlineConnect=0;fontColor=#232F3E;fillColor=#ED7100;strokeColor=#ffffff;dashed=0;verticalLabelPosition=bottom;verticalAlign=top;align=center;html=1;fontSize=12;fontStyle=0;aspect=fixed;shape=mxgraph.aws4.resourceIcon;resIcon=mxgraph.aws4.lambda;" parent="MufeMbEMQpiEw7InIswr-2" vertex="1">
          <mxGeometry x="1080" y="254" width="50" height="50" as="geometry" />
        </mxCell>
        <mxCell id="MufeMbEMQpiEw7InIswr-16" value="Lookup_Schema_AND_Refine Action Group" style="text;html=1;align=center;verticalAlign=middle;whiteSpace=wrap;rounded=0;" parent="MufeMbEMQpiEw7InIswr-2" vertex="1">
          <mxGeometry x="867" y="155.5" width="180" height="29" as="geometry" />
        </mxCell>
        <mxCell id="MufeMbEMQpiEw7InIswr-28" value="&lt;div&gt;Action Group&lt;/div&gt;&lt;div&gt;Lambda function&lt;br&gt;&lt;/div&gt;" style="text;html=1;align=center;verticalAlign=middle;whiteSpace=wrap;rounded=0;" parent="MufeMbEMQpiEw7InIswr-2" vertex="1">
          <mxGeometry x="1039" y="159" width="130" height="20" as="geometry" />
        </mxCell>
        <mxCell id="MufeMbEMQpiEw7InIswr-31" value="&lt;div&gt;Action Group&lt;/div&gt;&lt;div&gt;Lambda function&lt;br&gt;&lt;/div&gt;" style="text;html=1;align=center;verticalAlign=middle;whiteSpace=wrap;rounded=0;" parent="MufeMbEMQpiEw7InIswr-2" vertex="1">
          <mxGeometry x="1037" y="314" width="130" height="20" as="geometry" />
        </mxCell>
        <mxCell id="MufeMbEMQpiEw7InIswr-32" value="Internet_Search Action Group" style="text;html=1;align=center;verticalAlign=middle;whiteSpace=wrap;rounded=0;" parent="MufeMbEMQpiEw7InIswr-2" vertex="1">
          <mxGeometry x="868" y="309.5" width="180" height="29" as="geometry" />
        </mxCell>
        <mxCell id="MufeMbEMQpiEw7InIswr-33" value="" style="endArrow=classic;startArrow=classic;html=1;rounded=0;exitX=0.5;exitY=0;exitDx=0;exitDy=0;exitPerimeter=0;entryX=0;entryY=0.25;entryDx=0;entryDy=0;" parent="MufeMbEMQpiEw7InIswr-2" source="MufeMbEMQpiEw7InIswr-4" target="MufeMbEMQpiEw7InIswr-5" edge="1">
          <mxGeometry width="50" height="50" relative="1" as="geometry">
            <mxPoint x="1017" y="220" as="sourcePoint" />
            <mxPoint x="1067" y="170" as="targetPoint" />
            <Array as="points">
              <mxPoint x="777" y="80" />
            </Array>
          </mxGeometry>
        </mxCell>
        <mxCell id="MufeMbEMQpiEw7InIswr-36" value="task" style="text;strokeColor=none;align=center;fillColor=none;html=1;verticalAlign=middle;whiteSpace=wrap;rounded=0;" parent="MufeMbEMQpiEw7InIswr-2" vertex="1">
          <mxGeometry x="792.66" y="85" width="60" height="30" as="geometry" />
        </mxCell>
        <mxCell id="MufeMbEMQpiEw7InIswr-39" value="" style="rounded=1;whiteSpace=wrap;html=1;" parent="MufeMbEMQpiEw7InIswr-2" vertex="1">
          <mxGeometry x="416" y="333" width="280" height="160" as="geometry" />
        </mxCell>
        <mxCell id="MufeMbEMQpiEw7InIswr-40" value="" style="sketch=0;points=[[0,0,0],[0.25,0,0],[0.5,0,0],[0.75,0,0],[1,0,0],[0,1,0],[0.25,1,0],[0.5,1,0],[0.75,1,0],[1,1,0],[0,0.25,0],[0,0.5,0],[0,0.75,0],[1,0.25,0],[1,0.5,0],[1,0.75,0]];outlineConnect=0;fontColor=#232F3E;fillColor=#ED7100;strokeColor=#ffffff;dashed=0;verticalLabelPosition=bottom;verticalAlign=top;align=center;html=1;fontSize=12;fontStyle=0;aspect=fixed;shape=mxgraph.aws4.resourceIcon;resIcon=mxgraph.aws4.lambda;" parent="MufeMbEMQpiEw7InIswr-2" vertex="1">
          <mxGeometry x="426" y="378.5" width="49" height="49" as="geometry" />
        </mxCell>
        <mxCell id="MufeMbEMQpiEw7InIswr-41" value="" style="sketch=0;points=[[0,0,0],[0.25,0,0],[0.5,0,0],[0.75,0,0],[1,0,0],[0,1,0],[0.25,1,0],[0.5,1,0],[0.75,1,0],[1,1,0],[0,0.25,0],[0,0.5,0],[0,0.75,0],[1,0.25,0],[1,0.5,0],[1,0.75,0]];outlineConnect=0;fontColor=#232F3E;fillColor=#ED7100;strokeColor=#ffffff;dashed=0;verticalLabelPosition=bottom;verticalAlign=top;align=center;html=1;fontSize=12;fontStyle=0;aspect=fixed;shape=mxgraph.aws4.resourceIcon;resIcon=mxgraph.aws4.fargate;" parent="MufeMbEMQpiEw7InIswr-2" vertex="1">
          <mxGeometry x="492" y="378.5" width="49" height="49" as="geometry" />
        </mxCell>
        <mxCell id="MufeMbEMQpiEw7InIswr-42" value="" style="sketch=0;points=[[0,0,0],[0.25,0,0],[0.5,0,0],[0.75,0,0],[1,0,0],[0,1,0],[0.25,1,0],[0.5,1,0],[0.75,1,0],[1,1,0],[0,0.25,0],[0,0.5,0],[0,0.75,0],[1,0.25,0],[1,0.5,0],[1,0.75,0]];outlineConnect=0;fontColor=#232F3E;fillColor=#ED7100;strokeColor=#ffffff;dashed=0;verticalLabelPosition=bottom;verticalAlign=top;align=center;html=1;fontSize=12;fontStyle=0;aspect=fixed;shape=mxgraph.aws4.resourceIcon;resIcon=mxgraph.aws4.ec2;" parent="MufeMbEMQpiEw7InIswr-2" vertex="1">
          <mxGeometry x="556" y="378.5" width="51.25" height="51.25" as="geometry" />
        </mxCell>
        <mxCell id="MufeMbEMQpiEw7InIswr-44" value="" style="sketch=0;points=[[0,0,0],[0.25,0,0],[0.5,0,0],[0.75,0,0],[1,0,0],[0,1,0],[0.25,1,0],[0.5,1,0],[0.75,1,0],[1,1,0],[0,0.25,0],[0,0.5,0],[0,0.75,0],[1,0.25,0],[1,0.5,0],[1,0.75,0]];outlineConnect=0;fontColor=#232F3E;fillColor=#ED7100;strokeColor=#ffffff;dashed=0;verticalLabelPosition=bottom;verticalAlign=top;align=center;html=1;fontSize=12;fontStyle=0;aspect=fixed;shape=mxgraph.aws4.resourceIcon;resIcon=mxgraph.aws4.eks_cloud;" parent="MufeMbEMQpiEw7InIswr-2" vertex="1">
          <mxGeometry x="626" y="379.13" width="50" height="50" as="geometry" />
        </mxCell>
        <mxCell id="MufeMbEMQpiEw7InIswr-45" value="" style="sketch=0;points=[[0,0,0],[0.25,0,0],[0.5,0,0],[0.75,0,0],[1,0,0],[0,1,0],[0.25,1,0],[0.5,1,0],[0.75,1,0],[1,1,0],[0,0.25,0],[0,0.5,0],[0,0.75,0],[1,0.25,0],[1,0.5,0],[1,0.75,0]];outlineConnect=0;fontColor=#232F3E;fillColor=#8C4FFF;strokeColor=#ffffff;dashed=0;verticalLabelPosition=bottom;verticalAlign=top;align=center;html=1;fontSize=12;fontStyle=0;aspect=fixed;shape=mxgraph.aws4.resourceIcon;resIcon=mxgraph.aws4.api_gateway;" parent="MufeMbEMQpiEw7InIswr-2" vertex="1">
          <mxGeometry x="299" y="374.13" width="80" height="80" as="geometry" />
        </mxCell>
        <mxCell id="MufeMbEMQpiEw7InIswr-46" value="" style="rounded=1;whiteSpace=wrap;html=1;dashed=1;" parent="MufeMbEMQpiEw7InIswr-2" vertex="1">
          <mxGeometry x="140" y="253" width="120" height="320" as="geometry" />
        </mxCell>
        <mxCell id="MufeMbEMQpiEw7InIswr-47" value="" style="sketch=0;points=[[0,0,0],[0.25,0,0],[0.5,0,0],[0.75,0,0],[1,0,0],[0,1,0],[0.25,1,0],[0.5,1,0],[0.75,1,0],[1,1,0],[0,0.25,0],[0,0.5,0],[0,0.75,0],[1,0.25,0],[1,0.5,0],[1,0.75,0]];outlineConnect=0;fontColor=#232F3E;fillColor=#DD344C;strokeColor=#ffffff;dashed=0;verticalLabelPosition=bottom;verticalAlign=top;align=center;html=1;fontSize=12;fontStyle=0;aspect=fixed;shape=mxgraph.aws4.resourceIcon;resIcon=mxgraph.aws4.amplify;" parent="MufeMbEMQpiEw7InIswr-2" vertex="1">
          <mxGeometry x="21" y="376.13" width="78" height="78" as="geometry" />
        </mxCell>
        <mxCell id="MufeMbEMQpiEw7InIswr-48" value="" style="sketch=0;points=[[0,0,0],[0.25,0,0],[0.5,0,0],[0.75,0,0],[1,0,0],[0,1,0],[0.25,1,0],[0.5,1,0],[0.75,1,0],[1,1,0],[0,0.25,0],[0,0.5,0],[0,0.75,0],[1,0.25,0],[1,0.5,0],[1,0.75,0]];outlineConnect=0;fontColor=#232F3E;fillColor=#8C4FFF;strokeColor=#ffffff;dashed=0;verticalLabelPosition=bottom;verticalAlign=top;align=center;html=1;fontSize=12;fontStyle=0;aspect=fixed;shape=mxgraph.aws4.resourceIcon;resIcon=mxgraph.aws4.cloudfront;" parent="MufeMbEMQpiEw7InIswr-2" vertex="1">
          <mxGeometry x="159" y="375.13" width="78" height="78" as="geometry" />
        </mxCell>
        <mxCell id="MufeMbEMQpiEw7InIswr-49" value="" style="sketch=0;points=[[0,0,0],[0.25,0,0],[0.5,0,0],[0.75,0,0],[1,0,0],[0,1,0],[0.25,1,0],[0.5,1,0],[0.75,1,0],[1,1,0],[0,0.25,0],[0,0.5,0],[0,0.75,0],[1,0.25,0],[1,0.5,0],[1,0.75,0]];outlineConnect=0;fontColor=#232F3E;fillColor=#7AA116;strokeColor=#ffffff;dashed=0;verticalLabelPosition=bottom;verticalAlign=top;align=center;html=1;fontSize=12;fontStyle=0;aspect=fixed;shape=mxgraph.aws4.resourceIcon;resIcon=mxgraph.aws4.s3;" parent="MufeMbEMQpiEw7InIswr-2" vertex="1">
          <mxGeometry x="160" y="272" width="78" height="78" as="geometry" />
        </mxCell>
        <mxCell id="MufeMbEMQpiEw7InIswr-50" value="" style="sketch=0;points=[[0,0,0],[0.25,0,0],[0.5,0,0],[0.75,0,0],[1,0,0],[0,1,0],[0.25,1,0],[0.5,1,0],[0.75,1,0],[1,1,0],[0,0.25,0],[0,0.5,0],[0,0.75,0],[1,0.25,0],[1,0.5,0],[1,0.75,0]];outlineConnect=0;fontColor=#232F3E;fillColor=#DD344C;strokeColor=#ffffff;dashed=0;verticalLabelPosition=bottom;verticalAlign=top;align=center;html=1;fontSize=12;fontStyle=0;aspect=fixed;shape=mxgraph.aws4.resourceIcon;resIcon=mxgraph.aws4.cognito;" parent="MufeMbEMQpiEw7InIswr-2" vertex="1">
          <mxGeometry x="159" y="475" width="78" height="78" as="geometry" />
        </mxCell>
        <mxCell id="MufeMbEMQpiEw7InIswr-59" value="AWS Cloud" style="text;html=1;align=center;verticalAlign=middle;whiteSpace=wrap;rounded=0;" parent="MufeMbEMQpiEw7InIswr-2" vertex="1">
          <mxGeometry x="19" width="80" height="20" as="geometry" />
        </mxCell>
        <mxCell id="MufeMbEMQpiEw7InIswr-60" value="AWS Amplify" style="text;html=1;align=center;verticalAlign=middle;whiteSpace=wrap;rounded=0;" parent="MufeMbEMQpiEw7InIswr-2" vertex="1">
          <mxGeometry x="20" y="350" width="80" height="20" as="geometry" />
        </mxCell>
        <mxCell id="MufeMbEMQpiEw7InIswr-61" value="Amazon S3" style="text;html=1;align=center;verticalAlign=middle;whiteSpace=wrap;rounded=0;" parent="MufeMbEMQpiEw7InIswr-2" vertex="1">
          <mxGeometry x="101" y="293" width="61" height="40" as="geometry" />
        </mxCell>
        <mxCell id="MufeMbEMQpiEw7InIswr-62" value="Amazon CloudFront" style="text;html=1;align=center;verticalAlign=middle;whiteSpace=wrap;rounded=0;" parent="MufeMbEMQpiEw7InIswr-2" vertex="1">
          <mxGeometry x="229" y="433.75" width="70" height="43.25" as="geometry" />
        </mxCell>
        <mxCell id="MufeMbEMQpiEw7InIswr-63" value="&lt;div&gt;Amazon Cognito&lt;/div&gt;" style="text;html=1;align=center;verticalAlign=middle;whiteSpace=wrap;rounded=0;" parent="MufeMbEMQpiEw7InIswr-2" vertex="1">
          <mxGeometry x="89" y="495.38" width="70" height="43.25" as="geometry" />
        </mxCell>
        <mxCell id="MufeMbEMQpiEw7InIswr-64" value="&lt;div&gt;&lt;b&gt;Application Frontend&lt;br&gt;&lt;/b&gt;&lt;/div&gt;" style="text;html=1;align=center;verticalAlign=middle;whiteSpace=wrap;rounded=0;" parent="MufeMbEMQpiEw7InIswr-2" vertex="1">
          <mxGeometry x="115" y="588.5" width="170" height="30" as="geometry" />
        </mxCell>
        <mxCell id="MufeMbEMQpiEw7InIswr-65" value="Amazon CloudFront" style="text;html=1;align=center;verticalAlign=middle;whiteSpace=wrap;rounded=0;" parent="MufeMbEMQpiEw7InIswr-2" vertex="1">
          <mxGeometry x="304" y="453.13" width="70" height="43.25" as="geometry" />
        </mxCell>
        <mxCell id="MufeMbEMQpiEw7InIswr-66" value="&lt;div&gt;&lt;b&gt;Application Backend&lt;br&gt;&lt;/b&gt;&lt;/div&gt;" style="text;html=1;align=center;verticalAlign=middle;whiteSpace=wrap;rounded=0;" parent="MufeMbEMQpiEw7InIswr-2" vertex="1">
          <mxGeometry x="475" y="499" width="170" height="30" as="geometry" />
        </mxCell>
        <mxCell id="MufeMbEMQpiEw7InIswr-67" value="Agents for Bedrock invoked from any compute, Lambda, Fargate, EC2, EKS. ECS etc." style="text;html=1;align=center;verticalAlign=middle;whiteSpace=wrap;rounded=0;" parent="MufeMbEMQpiEw7InIswr-2" vertex="1">
          <mxGeometry x="429" y="442.38" width="254" height="26" as="geometry" />
        </mxCell>
        <mxCell id="MufeMbEMQpiEw7InIswr-68" value="" style="endArrow=classic;html=1;rounded=0;dashed=1;" parent="MufeMbEMQpiEw7InIswr-2" edge="1">
          <mxGeometry width="50" height="50" relative="1" as="geometry">
            <mxPoint x="1066" y="127" as="sourcePoint" />
            <mxPoint x="976" y="127" as="targetPoint" />
          </mxGeometry>
        </mxCell>
        <mxCell id="MufeMbEMQpiEw7InIswr-69" value="" style="endArrow=classic;html=1;rounded=0;dashed=1;" parent="MufeMbEMQpiEw7InIswr-2" edge="1">
          <mxGeometry width="50" height="50" relative="1" as="geometry">
            <mxPoint x="1070" y="288" as="sourcePoint" />
            <mxPoint x="980" y="288" as="targetPoint" />
          </mxGeometry>
        </mxCell>
        <mxCell id="MufeMbEMQpiEw7InIswr-70" value="" style="endArrow=classic;html=1;rounded=0;dashed=1;" parent="MufeMbEMQpiEw7InIswr-2" edge="1">
          <mxGeometry width="50" height="50" relative="1" as="geometry">
            <mxPoint x="980" y="275" as="sourcePoint" />
            <mxPoint x="1070" y="275" as="targetPoint" />
          </mxGeometry>
        </mxCell>
        <mxCell id="MufeMbEMQpiEw7InIswr-71" value="" style="endArrow=classic;html=1;rounded=0;dashed=1;" parent="MufeMbEMQpiEw7InIswr-2" edge="1">
          <mxGeometry width="50" height="50" relative="1" as="geometry">
            <mxPoint x="980" y="112" as="sourcePoint" />
            <mxPoint x="1070" y="112" as="targetPoint" />
          </mxGeometry>
        </mxCell>
        <mxCell id="MufeMbEMQpiEw7InIswr-72" value="" style="endArrow=classic;startArrow=classic;html=1;rounded=0;dashed=1;entryX=0;entryY=0.5;entryDx=0;entryDy=0;" parent="MufeMbEMQpiEw7InIswr-2" edge="1">
          <mxGeometry width="50" height="50" relative="1" as="geometry">
            <mxPoint x="1133" y="104" as="sourcePoint" />
            <mxPoint x="1217" y="79.5" as="targetPoint" />
          </mxGeometry>
        </mxCell>
        <mxCell id="MufeMbEMQpiEw7InIswr-73" value="" style="endArrow=classic;startArrow=classic;html=1;rounded=0;dashed=1;" parent="MufeMbEMQpiEw7InIswr-2" edge="1">
          <mxGeometry width="50" height="50" relative="1" as="geometry">
            <mxPoint x="1134" y="283.5" as="sourcePoint" />
            <mxPoint x="1207" y="283.5" as="targetPoint" />
          </mxGeometry>
        </mxCell>
        <mxCell id="MufeMbEMQpiEw7InIswr-74" value="task" style="text;strokeColor=none;align=center;fillColor=none;html=1;verticalAlign=middle;whiteSpace=wrap;rounded=0;" parent="MufeMbEMQpiEw7InIswr-2" vertex="1">
          <mxGeometry x="792.66" y="347" width="60" height="26" as="geometry" />
        </mxCell>
        <mxCell id="MufeMbEMQpiEw7InIswr-75" value="Invoke" style="text;strokeColor=none;align=center;fillColor=none;html=1;verticalAlign=middle;whiteSpace=wrap;rounded=0;" parent="MufeMbEMQpiEw7InIswr-2" vertex="1">
          <mxGeometry x="995" y="250" width="60" height="26" as="geometry" />
        </mxCell>
        <mxCell id="MufeMbEMQpiEw7InIswr-76" value="Invoke" style="text;strokeColor=none;align=center;fillColor=none;html=1;verticalAlign=middle;whiteSpace=wrap;rounded=0;" parent="MufeMbEMQpiEw7InIswr-2" vertex="1">
          <mxGeometry x="995" y="87" width="60" height="26" as="geometry" />
        </mxCell>
        <mxCell id="MufeMbEMQpiEw7InIswr-77" value="Respond" style="text;strokeColor=none;align=center;fillColor=none;html=1;verticalAlign=middle;whiteSpace=wrap;rounded=0;" parent="MufeMbEMQpiEw7InIswr-2" vertex="1">
          <mxGeometry x="995" y="124" width="60" height="26" as="geometry" />
        </mxCell>
        <mxCell id="MufeMbEMQpiEw7InIswr-78" value="Respond" style="text;strokeColor=none;align=center;fillColor=none;html=1;verticalAlign=middle;whiteSpace=wrap;rounded=0;" parent="MufeMbEMQpiEw7InIswr-2" vertex="1">
          <mxGeometry x="995" y="288" width="60" height="26" as="geometry" />
        </mxCell>
        <mxCell id="MufeMbEMQpiEw7InIswr-80" value="Call Selected API" style="text;strokeColor=none;align=center;fillColor=none;html=1;verticalAlign=middle;whiteSpace=wrap;rounded=0;" parent="MufeMbEMQpiEw7InIswr-2" vertex="1">
          <mxGeometry x="1145.5" y="108" width="80" height="26" as="geometry" />
        </mxCell>
        <mxCell id="MufeMbEMQpiEw7InIswr-81" value="Call Selected API" style="text;strokeColor=none;align=center;fillColor=none;html=1;verticalAlign=middle;whiteSpace=wrap;rounded=0;" parent="MufeMbEMQpiEw7InIswr-2" vertex="1">
          <mxGeometry x="1133" y="252" width="80" height="26" as="geometry" />
        </mxCell>
        <mxCell id="1QwhLPOlTZuQX5jJg51U-1" value="Data Quality Agent" style="text;html=1;align=center;verticalAlign=middle;whiteSpace=wrap;rounded=0;" parent="MufeMbEMQpiEw7InIswr-2" vertex="1">
          <mxGeometry x="690" y="458.26" width="150" height="33" as="geometry" />
        </mxCell>
        <mxCell id="mqrPMeG1t2pJUvO1WKw1-2" value="" style="rounded=1;whiteSpace=wrap;html=1;dashed=1;" vertex="1" parent="MufeMbEMQpiEw7InIswr-2">
          <mxGeometry x="857" y="640" width="543" height="122" as="geometry" />
        </mxCell>
        <mxCell id="mqrPMeG1t2pJUvO1WKw1-4" value="" style="endArrow=classic;startArrow=classic;html=1;rounded=0;dashed=1;" edge="1" parent="MufeMbEMQpiEw7InIswr-2">
          <mxGeometry width="50" height="50" relative="1" as="geometry">
            <mxPoint x="1134" y="130" as="sourcePoint" />
            <mxPoint x="1220" y="156" as="targetPoint" />
          </mxGeometry>
        </mxCell>
        <mxCell id="mqrPMeG1t2pJUvO1WKw1-5" value="" style="sketch=0;points=[[0,0,0],[0.25,0,0],[0.5,0,0],[0.75,0,0],[1,0,0],[0,1,0],[0.25,1,0],[0.5,1,0],[0.75,1,0],[1,1,0],[0,0.25,0],[0,0.5,0],[0,0.75,0],[1,0.25,0],[1,0.5,0],[1,0.75,0]];outlineConnect=0;fontColor=#232F3E;fillColor=#8C4FFF;strokeColor=#ffffff;dashed=0;verticalLabelPosition=bottom;verticalAlign=top;align=center;html=1;fontSize=12;fontStyle=0;aspect=fixed;shape=mxgraph.aws4.resourceIcon;resIcon=mxgraph.aws4.redshift;" vertex="1" parent="MufeMbEMQpiEw7InIswr-2">
          <mxGeometry x="1230" y="55.5" width="59.5" height="59.5" as="geometry" />
        </mxCell>
        <mxCell id="mqrPMeG1t2pJUvO1WKw1-6" value="" style="sketch=0;points=[[0,0,0],[0.25,0,0],[0.5,0,0],[0.75,0,0],[1,0,0],[0,1,0],[0.25,1,0],[0.5,1,0],[0.75,1,0],[1,1,0],[0,0.25,0],[0,0.5,0],[0,0.75,0],[1,0.25,0],[1,0.5,0],[1,0.75,0]];outlineConnect=0;fontColor=#232F3E;fillColor=#01A88D;strokeColor=#ffffff;dashed=0;verticalLabelPosition=bottom;verticalAlign=top;align=center;html=1;fontSize=12;fontStyle=0;aspect=fixed;shape=mxgraph.aws4.resourceIcon;resIcon=mxgraph.aws4.bedrock;" vertex="1" parent="MufeMbEMQpiEw7InIswr-2">
          <mxGeometry x="1230" y="127" width="58" height="58" as="geometry" />
        </mxCell>
        <mxCell id="mqrPMeG1t2pJUvO1WKw1-7" value="Redshift" style="text;strokeColor=none;align=center;fillColor=none;html=1;verticalAlign=middle;whiteSpace=wrap;rounded=0;" vertex="1" parent="MufeMbEMQpiEw7InIswr-2">
          <mxGeometry x="1298" y="75" width="80" height="26" as="geometry" />
        </mxCell>
        <mxCell id="mqrPMeG1t2pJUvO1WKw1-8" value="&lt;div&gt;Bedrock LLM&lt;br&gt;&lt;/div&gt;&amp;nbsp;to refine agent generated SQL/pyspark code" style="text;strokeColor=none;align=center;fillColor=none;html=1;verticalAlign=middle;whiteSpace=wrap;rounded=0;" vertex="1" parent="MufeMbEMQpiEw7InIswr-2">
          <mxGeometry x="1281" y="125" width="119" height="55" as="geometry" />
        </mxCell>
        <mxCell id="mqrPMeG1t2pJUvO1WKw1-10" value="" style="endArrow=classic;startArrow=classic;html=1;rounded=0;exitX=0;exitY=0.5;exitDx=0;exitDy=0;entryX=0.5;entryY=1;entryDx=0;entryDy=0;entryPerimeter=0;" edge="1" parent="MufeMbEMQpiEw7InIswr-2" source="mqrPMeG1t2pJUvO1WKw1-2" target="MufeMbEMQpiEw7InIswr-4">
          <mxGeometry width="50" height="50" relative="1" as="geometry">
            <mxPoint x="848" y="774" as="sourcePoint" />
            <mxPoint x="751" y="453" as="targetPoint" />
            <Array as="points">
              <mxPoint x="776" y="700" />
            </Array>
          </mxGeometry>
        </mxCell>
        <mxCell id="mqrPMeG1t2pJUvO1WKw1-11" value="" style="sketch=0;outlineConnect=0;fontColor=#232F3E;gradientColor=none;fillColor=#232F3D;strokeColor=none;dashed=0;verticalLabelPosition=bottom;verticalAlign=top;align=center;html=1;fontSize=12;fontStyle=0;aspect=fixed;pointerEvents=1;shape=mxgraph.aws4.forums;" vertex="1" parent="MufeMbEMQpiEw7InIswr-2">
          <mxGeometry x="922" y="671" width="51.32" height="50" as="geometry" />
        </mxCell>
        <mxCell id="mqrPMeG1t2pJUvO1WKw1-12" value="Call to ETL tool to execute pyspark / SQL query" style="rounded=0;whiteSpace=wrap;html=1;" vertex="1" parent="MufeMbEMQpiEw7InIswr-2">
          <mxGeometry x="1222" y="669" width="158" height="58" as="geometry" />
        </mxCell>
        <mxCell id="mqrPMeG1t2pJUvO1WKw1-13" value="" style="sketch=0;points=[[0,0,0],[0.25,0,0],[0.5,0,0],[0.75,0,0],[1,0,0],[0,1,0],[0.25,1,0],[0.5,1,0],[0.75,1,0],[1,1,0],[0,0.25,0],[0,0.5,0],[0,0.75,0],[1,0.25,0],[1,0.5,0],[1,0.75,0]];outlineConnect=0;fontColor=#232F3E;fillColor=#ED7100;strokeColor=#ffffff;dashed=0;verticalLabelPosition=bottom;verticalAlign=top;align=center;html=1;fontSize=12;fontStyle=0;aspect=fixed;shape=mxgraph.aws4.resourceIcon;resIcon=mxgraph.aws4.lambda;" vertex="1" parent="MufeMbEMQpiEw7InIswr-2">
          <mxGeometry x="1082" y="671" width="50" height="50" as="geometry" />
        </mxCell>
        <mxCell id="mqrPMeG1t2pJUvO1WKw1-14" value="&lt;div&gt;Action Group&lt;/div&gt;&lt;div&gt;Lambda function&lt;br&gt;&lt;/div&gt;" style="text;html=1;align=center;verticalAlign=middle;whiteSpace=wrap;rounded=0;" vertex="1" parent="MufeMbEMQpiEw7InIswr-2">
          <mxGeometry x="1042" y="731" width="130" height="20" as="geometry" />
        </mxCell>
        <mxCell id="mqrPMeG1t2pJUvO1WKw1-15" value="&lt;div&gt;ETL_AND_Error-Handling&amp;nbsp;&lt;/div&gt;&lt;div&gt;Action Group&lt;/div&gt;" style="text;html=1;align=center;verticalAlign=middle;whiteSpace=wrap;rounded=0;" vertex="1" parent="MufeMbEMQpiEw7InIswr-2">
          <mxGeometry x="852.66" y="726.5" width="180" height="29" as="geometry" />
        </mxCell>
        <mxCell id="mqrPMeG1t2pJUvO1WKw1-16" value="Invoke" style="text;strokeColor=none;align=center;fillColor=none;html=1;verticalAlign=middle;whiteSpace=wrap;rounded=0;" vertex="1" parent="MufeMbEMQpiEw7InIswr-2">
          <mxGeometry x="1000" y="667" width="60" height="26" as="geometry" />
        </mxCell>
        <mxCell id="mqrPMeG1t2pJUvO1WKw1-17" value="Respond" style="text;strokeColor=none;align=center;fillColor=none;html=1;verticalAlign=middle;whiteSpace=wrap;rounded=0;" vertex="1" parent="MufeMbEMQpiEw7InIswr-2">
          <mxGeometry x="1000" y="705" width="60" height="26" as="geometry" />
        </mxCell>
        <mxCell id="mqrPMeG1t2pJUvO1WKw1-18" value="Call Selected API" style="text;strokeColor=none;align=center;fillColor=none;html=1;verticalAlign=middle;whiteSpace=wrap;rounded=0;" vertex="1" parent="MufeMbEMQpiEw7InIswr-2">
          <mxGeometry x="1138" y="669" width="80" height="26" as="geometry" />
        </mxCell>
        <mxCell id="mqrPMeG1t2pJUvO1WKw1-19" value="" style="endArrow=classic;html=1;rounded=0;dashed=1;" edge="1" parent="MufeMbEMQpiEw7InIswr-2">
          <mxGeometry width="50" height="50" relative="1" as="geometry">
            <mxPoint x="1070" y="706" as="sourcePoint" />
            <mxPoint x="980" y="706" as="targetPoint" />
          </mxGeometry>
        </mxCell>
        <mxCell id="mqrPMeG1t2pJUvO1WKw1-20" value="" style="endArrow=classic;html=1;rounded=0;dashed=1;" edge="1" parent="MufeMbEMQpiEw7InIswr-2">
          <mxGeometry width="50" height="50" relative="1" as="geometry">
            <mxPoint x="980" y="693" as="sourcePoint" />
            <mxPoint x="1070" y="693" as="targetPoint" />
          </mxGeometry>
        </mxCell>
        <mxCell id="mqrPMeG1t2pJUvO1WKw1-21" value="" style="endArrow=classic;startArrow=classic;html=1;rounded=0;dashed=1;" edge="1" parent="MufeMbEMQpiEw7InIswr-2">
          <mxGeometry width="50" height="50" relative="1" as="geometry">
            <mxPoint x="1140" y="705" as="sourcePoint" />
            <mxPoint x="1213" y="705" as="targetPoint" />
          </mxGeometry>
        </mxCell>
        <mxCell id="mqrPMeG1t2pJUvO1WKw1-22" value="" style="sketch=0;points=[[0,0,0],[0.25,0,0],[0.5,0,0],[0.75,0,0],[1,0,0],[0,1,0],[0.25,1,0],[0.5,1,0],[0.75,1,0],[1,1,0],[0,0.25,0],[0,0.5,0],[0,0.75,0],[1,0.25,0],[1,0.5,0],[1,0.75,0]];outlineConnect=0;fontColor=#232F3E;fillColor=#8C4FFF;strokeColor=#ffffff;dashed=0;verticalLabelPosition=bottom;verticalAlign=top;align=center;html=1;fontSize=12;fontStyle=0;aspect=fixed;shape=mxgraph.aws4.resourceIcon;resIcon=mxgraph.aws4.elasticsearch_service;" vertex="1" parent="MufeMbEMQpiEw7InIswr-2">
          <mxGeometry x="1148" y="377" width="50" height="50" as="geometry" />
        </mxCell>
        <mxCell id="mqrPMeG1t2pJUvO1WKw1-23" value="" style="sketch=0;points=[[0,0,0],[0.25,0,0],[0.5,0,0],[0.75,0,0],[1,0,0],[0,1,0],[0.25,1,0],[0.5,1,0],[0.75,1,0],[1,1,0],[0,0.25,0],[0,0.5,0],[0,0.75,0],[1,0.25,0],[1,0.5,0],[1,0.75,0]];outlineConnect=0;fontColor=#232F3E;fillColor=#7AA116;strokeColor=#ffffff;dashed=0;verticalLabelPosition=bottom;verticalAlign=top;align=center;html=1;fontSize=12;fontStyle=0;aspect=fixed;shape=mxgraph.aws4.resourceIcon;resIcon=mxgraph.aws4.s3;" vertex="1" parent="MufeMbEMQpiEw7InIswr-2">
          <mxGeometry x="1297.75" y="371" width="56" height="56" as="geometry" />
        </mxCell>
        <mxCell id="mqrPMeG1t2pJUvO1WKw1-27" value="" style="endArrow=classic;html=1;rounded=0;dashed=1;" edge="1" parent="MufeMbEMQpiEw7InIswr-2">
          <mxGeometry width="50" height="50" relative="1" as="geometry">
            <mxPoint x="1290" y="410" as="sourcePoint" />
            <mxPoint x="1200" y="410" as="targetPoint" />
          </mxGeometry>
        </mxCell>
        <mxCell id="mqrPMeG1t2pJUvO1WKw1-28" value="" style="endArrow=classic;html=1;rounded=0;dashed=1;" edge="1" parent="MufeMbEMQpiEw7InIswr-2">
          <mxGeometry width="50" height="50" relative="1" as="geometry">
            <mxPoint x="1204" y="393" as="sourcePoint" />
            <mxPoint x="1294" y="393" as="targetPoint" />
          </mxGeometry>
        </mxCell>
        <mxCell id="mqrPMeG1t2pJUvO1WKw1-29" value="Opensearch Serverless index" style="text;html=1;align=center;verticalAlign=middle;whiteSpace=wrap;rounded=0;" vertex="1" parent="MufeMbEMQpiEw7InIswr-2">
          <mxGeometry x="1110.32" y="443" width="130" height="20" as="geometry" />
        </mxCell>
        <mxCell id="mqrPMeG1t2pJUvO1WKw1-30" value="Connects to" style="text;strokeColor=none;align=center;fillColor=none;html=1;verticalAlign=middle;whiteSpace=wrap;rounded=0;" vertex="1" parent="MufeMbEMQpiEw7InIswr-2">
          <mxGeometry x="1205" y="362.75" width="73" height="29.5" as="geometry" />
        </mxCell>
        <mxCell id="mqrPMeG1t2pJUvO1WKw1-31" value="feeds" style="text;strokeColor=none;align=center;fillColor=none;html=1;verticalAlign=middle;whiteSpace=wrap;rounded=0;" vertex="1" parent="MufeMbEMQpiEw7InIswr-2">
          <mxGeometry x="1214" y="406" width="73" height="29.5" as="geometry" />
        </mxCell>
        <mxCell id="mqrPMeG1t2pJUvO1WKw1-32" value="Amazon S3 with predefined DQ rules" style="text;html=1;align=center;verticalAlign=middle;whiteSpace=wrap;rounded=0;" vertex="1" parent="MufeMbEMQpiEw7InIswr-2">
          <mxGeometry x="1259.75" y="437" width="130" height="20" as="geometry" />
        </mxCell>
        <mxCell id="mqrPMeG1t2pJUvO1WKw1-33" value="Search on" style="text;strokeColor=none;align=center;fillColor=none;html=1;verticalAlign=middle;whiteSpace=wrap;rounded=0;" vertex="1" parent="MufeMbEMQpiEw7InIswr-2">
          <mxGeometry x="1069" y="365" width="73" height="29.5" as="geometry" />
        </mxCell>
        <mxCell id="mqrPMeG1t2pJUvO1WKw1-34" value="context" style="text;strokeColor=none;align=center;fillColor=none;html=1;verticalAlign=middle;whiteSpace=wrap;rounded=0;" vertex="1" parent="MufeMbEMQpiEw7InIswr-2">
          <mxGeometry x="1069" y="407" width="73" height="29.5" as="geometry" />
        </mxCell>
        <mxCell id="mqrPMeG1t2pJUvO1WKw1-39" value="" style="endArrow=classic;html=1;rounded=0;dashed=1;entryX=1;entryY=1;entryDx=0;entryDy=0;exitX=0;exitY=1;exitDx=0;exitDy=0;" edge="1" parent="MufeMbEMQpiEw7InIswr-2" source="mqrPMeG1t2pJUvO1WKw1-33" target="mqrPMeG1t2pJUvO1WKw1-33">
          <mxGeometry width="50" height="50" relative="1" as="geometry">
            <mxPoint x="1067" y="395" as="sourcePoint" />
            <mxPoint x="1156.5" y="400.5" as="targetPoint" />
          </mxGeometry>
        </mxCell>
        <mxCell id="mqrPMeG1t2pJUvO1WKw1-38" value="" style="endArrow=classic;html=1;rounded=0;dashed=1;" edge="1" parent="MufeMbEMQpiEw7InIswr-2">
          <mxGeometry width="50" height="50" relative="1" as="geometry">
            <mxPoint x="1138" y="409" as="sourcePoint" />
            <mxPoint x="1069.5" y="408.5" as="targetPoint" />
          </mxGeometry>
        </mxCell>
        <mxCell id="mqrPMeG1t2pJUvO1WKw1-40" value="" style="sketch=0;outlineConnect=0;fontColor=#232F3E;gradientColor=none;fillColor=#01A88D;strokeColor=none;dashed=0;verticalLabelPosition=bottom;verticalAlign=top;align=center;html=1;fontSize=12;fontStyle=0;aspect=fixed;pointerEvents=1;shape=mxgraph.aws4.sagemaker_train;" vertex="1" parent="MufeMbEMQpiEw7InIswr-2">
          <mxGeometry x="981.3199999999999" y="365.5" width="78" height="65" as="geometry" />
        </mxCell>
        <mxCell id="mqrPMeG1t2pJUvO1WKw1-41" value="Data_Quality Bedrock KB" style="text;html=1;align=center;verticalAlign=middle;whiteSpace=wrap;rounded=0;" vertex="1" parent="MufeMbEMQpiEw7InIswr-2">
          <mxGeometry x="930.3199999999999" y="432.5" width="180" height="29" as="geometry" />
        </mxCell>
        <mxCell id="mqrPMeG1t2pJUvO1WKw1-42" value="task" style="text;strokeColor=none;align=center;fillColor=none;html=1;verticalAlign=middle;whiteSpace=wrap;rounded=0;" vertex="1" parent="MufeMbEMQpiEw7InIswr-2">
          <mxGeometry x="780" y="667" width="60" height="26" as="geometry" />
        </mxCell>
        <mxCell id="mqrPMeG1t2pJUvO1WKw1-43" value="" style="sketch=0;points=[[0,0,0],[0.25,0,0],[0.5,0,0],[0.75,0,0],[1,0,0],[0,1,0],[0.25,1,0],[0.5,1,0],[0.75,1,0],[1,1,0],[0,0.25,0],[0,0.5,0],[0,0.75,0],[1,0.25,0],[1,0.5,0],[1,0.75,0]];outlineConnect=0;fontColor=#232F3E;fillColor=#01A88D;strokeColor=#ffffff;dashed=0;verticalLabelPosition=bottom;verticalAlign=top;align=center;html=1;fontSize=12;fontStyle=0;aspect=fixed;shape=mxgraph.aws4.resourceIcon;resIcon=mxgraph.aws4.bedrock;" vertex="1" parent="MufeMbEMQpiEw7InIswr-2">
          <mxGeometry x="848" y="387" width="60" height="60" as="geometry" />
        </mxCell>
        <mxCell id="mqrPMeG1t2pJUvO1WKw1-44" value="Data_Quality Rules Generation Agent" style="text;html=1;align=center;verticalAlign=middle;whiteSpace=wrap;rounded=0;" vertex="1" parent="MufeMbEMQpiEw7InIswr-2">
          <mxGeometry x="810" y="453.13" width="150" height="33" as="geometry" />
        </mxCell>
        <mxCell id="MufeMbEMQpiEw7InIswr-54" value="" style="endArrow=classic;startArrow=classic;html=1;rounded=0;exitX=1;exitY=0.5;exitDx=0;exitDy=0;exitPerimeter=0;" parent="MufeMbEMQpiEw7InIswr-2" edge="1">
          <mxGeometry width="50" height="50" relative="1" as="geometry">
            <mxPoint x="260" y="419.5" as="sourcePoint" />
            <mxPoint x="302" y="419.5" as="targetPoint" />
          </mxGeometry>
        </mxCell>
        <mxCell id="MufeMbEMQpiEw7InIswr-53" value="" style="endArrow=classic;startArrow=classic;html=1;rounded=0;entryX=0;entryY=0.5;entryDx=0;entryDy=0;" parent="MufeMbEMQpiEw7InIswr-2" edge="1">
          <mxGeometry width="50" height="50" relative="1" as="geometry">
            <mxPoint x="98.5" y="414.7" as="sourcePoint" />
            <mxPoint x="140" y="414.63" as="targetPoint" />
          </mxGeometry>
        </mxCell>
        <mxCell id="MufeMbEMQpiEw7InIswr-55" value="" style="endArrow=classic;startArrow=classic;html=1;rounded=0;exitX=1;exitY=0.5;exitDx=0;exitDy=0;exitPerimeter=0;" parent="MufeMbEMQpiEw7InIswr-2" edge="1">
          <mxGeometry width="50" height="50" relative="1" as="geometry">
            <mxPoint x="374" y="419.5" as="sourcePoint" />
            <mxPoint x="416" y="419.5" as="targetPoint" />
          </mxGeometry>
        </mxCell>
        <mxCell id="MufeMbEMQpiEw7InIswr-56" value="" style="endArrow=classic;startArrow=classic;html=1;rounded=0;exitX=1;exitY=0.5;exitDx=0;exitDy=0;exitPerimeter=0;" parent="MufeMbEMQpiEw7InIswr-2" edge="1">
          <mxGeometry width="50" height="50" relative="1" as="geometry">
            <mxPoint x="695" y="419.5" as="sourcePoint" />
            <mxPoint x="737" y="419.5" as="targetPoint" />
          </mxGeometry>
        </mxCell>
        <mxCell id="mqrPMeG1t2pJUvO1WKw1-49" value="" style="sketch=0;points=[[0,0,0],[0.25,0,0],[0.5,0,0],[0.75,0,0],[1,0,0],[0,1,0],[0.25,1,0],[0.5,1,0],[0.75,1,0],[1,1,0],[0,0.25,0],[0,0.5,0],[0,0.75,0],[1,0.25,0],[1,0.5,0],[1,0.75,0]];outlineConnect=0;fontColor=#232F3E;fillColor=#8C4FFF;strokeColor=#ffffff;dashed=0;verticalLabelPosition=bottom;verticalAlign=top;align=center;html=1;fontSize=12;fontStyle=0;aspect=fixed;shape=mxgraph.aws4.resourceIcon;resIcon=mxgraph.aws4.elasticsearch_service;" vertex="1" parent="MufeMbEMQpiEw7InIswr-2">
          <mxGeometry x="1148" y="495" width="50" height="50" as="geometry" />
        </mxCell>
        <mxCell id="mqrPMeG1t2pJUvO1WKw1-50" value="" style="sketch=0;points=[[0,0,0],[0.25,0,0],[0.5,0,0],[0.75,0,0],[1,0,0],[0,1,0],[0.25,1,0],[0.5,1,0],[0.75,1,0],[1,1,0],[0,0.25,0],[0,0.5,0],[0,0.75,0],[1,0.25,0],[1,0.5,0],[1,0.75,0]];outlineConnect=0;fontColor=#232F3E;fillColor=#7AA116;strokeColor=#ffffff;dashed=0;verticalLabelPosition=bottom;verticalAlign=top;align=center;html=1;fontSize=12;fontStyle=0;aspect=fixed;shape=mxgraph.aws4.resourceIcon;resIcon=mxgraph.aws4.s3;" vertex="1" parent="MufeMbEMQpiEw7InIswr-2">
          <mxGeometry x="1297.75" y="489" width="56" height="56" as="geometry" />
        </mxCell>
        <mxCell id="mqrPMeG1t2pJUvO1WKw1-51" value="Opensearch Serverless index" style="text;html=1;align=center;verticalAlign=middle;whiteSpace=wrap;rounded=0;" vertex="1" parent="MufeMbEMQpiEw7InIswr-2">
          <mxGeometry x="1110.32" y="562" width="130" height="20" as="geometry" />
        </mxCell>
        <mxCell id="mqrPMeG1t2pJUvO1WKw1-52" value="Connects to" style="text;strokeColor=none;align=center;fillColor=none;html=1;verticalAlign=middle;whiteSpace=wrap;rounded=0;" vertex="1" parent="MufeMbEMQpiEw7InIswr-2">
          <mxGeometry x="1205" y="485.75" width="73" height="29.5" as="geometry" />
        </mxCell>
        <mxCell id="mqrPMeG1t2pJUvO1WKw1-53" value="feeds" style="text;strokeColor=none;align=center;fillColor=none;html=1;verticalAlign=middle;whiteSpace=wrap;rounded=0;" vertex="1" parent="MufeMbEMQpiEw7InIswr-2">
          <mxGeometry x="1208" y="525.5" width="73" height="29.5" as="geometry" />
        </mxCell>
        <mxCell id="mqrPMeG1t2pJUvO1WKw1-54" value="Amazon S3 with reference domain data" style="text;html=1;align=center;verticalAlign=middle;whiteSpace=wrap;rounded=0;" vertex="1" parent="MufeMbEMQpiEw7InIswr-2">
          <mxGeometry x="1257.75" y="555" width="130" height="20" as="geometry" />
        </mxCell>
        <mxCell id="mqrPMeG1t2pJUvO1WKw1-55" value="Search on" style="text;strokeColor=none;align=center;fillColor=none;html=1;verticalAlign=middle;whiteSpace=wrap;rounded=0;" vertex="1" parent="MufeMbEMQpiEw7InIswr-2">
          <mxGeometry x="1069" y="483" width="73" height="29.5" as="geometry" />
        </mxCell>
        <mxCell id="mqrPMeG1t2pJUvO1WKw1-56" value="context" style="text;strokeColor=none;align=center;fillColor=none;html=1;verticalAlign=middle;whiteSpace=wrap;rounded=0;" vertex="1" parent="MufeMbEMQpiEw7InIswr-2">
          <mxGeometry x="1069" y="525" width="73" height="29.5" as="geometry" />
        </mxCell>
        <mxCell id="mqrPMeG1t2pJUvO1WKw1-57" value="" style="sketch=0;outlineConnect=0;fontColor=#232F3E;gradientColor=none;fillColor=#01A88D;strokeColor=none;dashed=0;verticalLabelPosition=bottom;verticalAlign=top;align=center;html=1;fontSize=12;fontStyle=0;aspect=fixed;pointerEvents=1;shape=mxgraph.aws4.sagemaker_train;" vertex="1" parent="MufeMbEMQpiEw7InIswr-2">
          <mxGeometry x="981.3199999999999" y="483.5" width="78" height="65" as="geometry" />
        </mxCell>
        <mxCell id="mqrPMeG1t2pJUvO1WKw1-58" value="Data_Quality Bedrock KB" style="text;html=1;align=center;verticalAlign=middle;whiteSpace=wrap;rounded=0;" vertex="1" parent="MufeMbEMQpiEw7InIswr-2">
          <mxGeometry x="930.3199999999999" y="550.5" width="180" height="29" as="geometry" />
        </mxCell>
        <mxCell id="mqrPMeG1t2pJUvO1WKw1-59" value="" style="endArrow=classic;html=1;rounded=0;dashed=1;" edge="1" parent="MufeMbEMQpiEw7InIswr-2">
          <mxGeometry width="50" height="50" relative="1" as="geometry">
            <mxPoint x="1290" y="530" as="sourcePoint" />
            <mxPoint x="1200" y="530" as="targetPoint" />
          </mxGeometry>
        </mxCell>
        <mxCell id="mqrPMeG1t2pJUvO1WKw1-60" value="" style="endArrow=classic;html=1;rounded=0;dashed=1;" edge="1" parent="MufeMbEMQpiEw7InIswr-2">
          <mxGeometry width="50" height="50" relative="1" as="geometry">
            <mxPoint x="1204" y="513" as="sourcePoint" />
            <mxPoint x="1294" y="513" as="targetPoint" />
          </mxGeometry>
        </mxCell>
        <mxCell id="mqrPMeG1t2pJUvO1WKw1-61" value="" style="endArrow=classic;html=1;rounded=0;dashed=1;entryX=1;entryY=1;entryDx=0;entryDy=0;exitX=0;exitY=1;exitDx=0;exitDy=0;" edge="1" parent="MufeMbEMQpiEw7InIswr-2">
          <mxGeometry width="50" height="50" relative="1" as="geometry">
            <mxPoint x="1070.5" y="512.75" as="sourcePoint" />
            <mxPoint x="1143.5" y="512.75" as="targetPoint" />
          </mxGeometry>
        </mxCell>
        <mxCell id="mqrPMeG1t2pJUvO1WKw1-62" value="" style="endArrow=classic;html=1;rounded=0;dashed=1;" edge="1" parent="MufeMbEMQpiEw7InIswr-2">
          <mxGeometry width="50" height="50" relative="1" as="geometry">
            <mxPoint x="1139.5" y="526.75" as="sourcePoint" />
            <mxPoint x="1071" y="526.25" as="targetPoint" />
          </mxGeometry>
        </mxCell>
        <mxCell id="mqrPMeG1t2pJUvO1WKw1-63" value="" style="endArrow=classic;startArrow=classic;html=1;rounded=0;exitX=1;exitY=0.5;exitDx=0;exitDy=0;exitPerimeter=0;" edge="1" parent="MufeMbEMQpiEw7InIswr-2">
          <mxGeometry width="50" height="50" relative="1" as="geometry">
            <mxPoint x="815" y="420" as="sourcePoint" />
            <mxPoint x="848" y="419.47619047619037" as="targetPoint" />
          </mxGeometry>
        </mxCell>
        <mxCell id="MufeMbEMQpiEw7InIswr-3" value="User" style="sketch=0;outlineConnect=0;fontColor=#232F3E;gradientColor=none;strokeColor=#232F3E;fillColor=#ffffff;dashed=0;verticalLabelPosition=bottom;verticalAlign=top;align=center;html=1;fontSize=12;fontStyle=0;aspect=fixed;shape=mxgraph.aws4.resourceIcon;resIcon=mxgraph.aws4.user;" parent="1" vertex="1">
          <mxGeometry x="-740" y="805.13" width="60" height="60" as="geometry" />
        </mxCell>
        <mxCell id="MufeMbEMQpiEw7InIswr-52" value="" style="endArrow=classic;startArrow=classic;html=1;rounded=0;" parent="1" source="MufeMbEMQpiEw7InIswr-3" target="MufeMbEMQpiEw7InIswr-47" edge="1">
          <mxGeometry width="50" height="50" relative="1" as="geometry">
            <mxPoint x="-320" y="730" as="sourcePoint" />
            <mxPoint x="-580" y="660" as="targetPoint" />
          </mxGeometry>
        </mxCell>
      </root>
    </mxGraphModel>
  </diagram>
</mxfile>
